<svg preserveAspectRatio="none" width="100%" height="100%" overflow="visible" style="display: block;" viewBox="0 0 166.513 48.0001" fill="none" xmlns="http://www.w3.org/2000/svg">
<g id="Group 61">
<path id="Vector" d="M73.0185 21.5134C73.0185 24.7182 70.4365 27.4576 65.1682 27.4576C59.8998 27.4576 57.3179 24.1997 57.3179 20.6339H61.6059C61.6059 22.2354 62.4323 23.9413 65.17 23.9413C67.9077 23.9413 68.6829 22.7778 68.6829 21.77C68.6829 20.6871 67.8821 20.0402 65.17 19.6774C59.5663 18.9555 57.9409 17.0682 57.9409 13.8634C57.9409 10.6587 60.4972 8.43787 65.2213 8.43787C69.9454 8.43787 72.2214 11.3586 72.3478 14.4333H68.1624C68.1624 13.2441 67.413 11.9523 65.1663 11.9523C62.9197 11.9523 62.2472 12.9344 62.2472 13.7095C62.2472 14.4076 62.5807 15.1827 65.3698 15.4924C70.0426 16.0091 73.0148 17.3779 73.0148 21.5134H73.0185Z" fill="var(--fill-0, #1F522B)"/>
<path id="Vector_2" d="M92.624 17.9477C92.624 23.1937 89.4208 27.4576 83.326 27.4576C77.2312 27.4576 74.0281 23.1937 74.0281 17.9477C74.0281 12.7017 77.2312 8.43787 83.3279 8.43787C89.4245 8.43787 92.6258 12.7017 92.6258 17.9477H92.624ZM88.2865 17.9477C88.2865 14.743 86.5054 12.1593 83.326 12.1593C80.1467 12.1593 78.3655 14.743 78.3655 17.9477C78.3655 21.1525 80.1467 23.7361 83.326 23.7361C86.5054 23.7361 88.2865 21.1525 88.2865 17.9477Z" fill="var(--fill-0, #1F522B)"/>
<path id="Vector_3" d="M98.9975 8.85388V23.3239H107.881V27.0454H94.6582V8.85388H98.9975Z" fill="var(--fill-0, #1F522B)"/>
<path id="Vector_4" d="M110.425 8.85388L114.453 21.6949C114.66 22.3674 114.737 23.1168 114.761 23.9176C114.761 24.1741 114.838 24.4086 115.173 24.4086C115.508 24.4086 115.611 24.1759 115.611 23.9176C115.636 23.1168 115.688 22.3674 115.895 21.6949L119.924 8.85388H124.469L118.064 27.0454H112.279L105.873 8.85388H110.421H110.425Z" fill="var(--fill-0, #1F522B)"/>
<path id="Vector_5" d="M135.581 8.85388L139.61 21.6949C139.817 22.3674 139.894 23.1168 139.918 23.9176C139.918 24.1741 139.995 24.4086 140.33 24.4086C140.666 24.4086 140.77 24.1759 140.77 23.9176C140.796 23.1168 140.847 22.3674 141.054 21.6949L145.084 8.85388H149.628L143.224 27.0454H137.439L131.032 8.85388H135.577H135.581Z" fill="var(--fill-0, #1F522B)"/>
<path id="Vector_6" d="M159.905 8.85388H154.12L147.508 27.0454H152.053L156.288 14.2043C156.52 13.5318 156.572 12.8081 156.597 12.0073C156.597 11.749 156.702 11.5419 157.01 11.5419C157.318 11.5419 157.448 11.749 157.448 12.0073C157.473 12.8081 157.499 13.5318 157.732 14.2043L161.968 27.0454H166.513L159.903 8.85388H159.907H159.905Z" fill="var(--fill-0, #1F522B)"/>
<g id="Group 60">
<g id="Group">
<path id="Vector_7" d="M33.254 1.62704L31.2951 10.3985C31.1906 10.8565 30.9836 11.3165 30.7325 11.7874C30.6464 11.9376 30.6116 12.0952 30.8095 12.2106C31.0074 12.3242 31.1393 12.2235 31.2291 12.0732C31.5113 11.6188 31.7917 11.2029 32.1362 10.8804L38.7551 4.79882L41.3847 6.316L31.6084 14.699L28.2642 12.7658L30.6299 0.109863L33.2595 1.62704H33.2558H33.254Z" fill="var(--fill-0, #1F522B)"/>
<path id="Vector_8" d="M43.2022 9.25123L37.1203 15.8696C36.7996 16.2123 36.3928 16.5091 35.9383 16.7913C35.7881 16.8774 35.6818 17.002 35.7917 17.1944C35.9035 17.3887 36.0739 17.3685 36.2205 17.2842C36.6915 17.0332 37.1423 16.8096 37.6004 16.7052L46.3724 14.7464L47.8897 17.3758L35.2292 19.7469L33.2959 16.4029L41.6776 6.62366L43.1949 9.25306L43.2041 9.2494L43.2022 9.25123Z" fill="var(--fill-0, #1F522B)"/>
<path id="Vector_9" d="M48.0035 20.8263L39.4257 23.5162C38.9768 23.6537 38.4747 23.7068 37.9414 23.7233C37.7692 23.7233 37.6134 23.7746 37.6134 24C37.6134 24.2253 37.7692 24.2931 37.9414 24.2931C38.4747 24.3096 38.9786 24.3444 39.4257 24.4837L48.0035 27.1736V30.2098L35.8542 25.9331V22.0705L48.0035 17.792V20.8282V20.8263Z" fill="var(--fill-0, #1F522B)"/>
<path id="Vector_10" d="M46.3761 33.2514L37.604 31.2927C37.1459 31.1882 36.686 30.9812 36.215 30.7301C36.0648 30.644 35.9072 30.6092 35.7917 30.8071C35.6781 31.005 35.7789 31.1387 35.9292 31.2267C36.3836 31.5089 36.7996 31.7892 37.1221 32.1337L43.2041 38.7521L41.6868 41.3815L33.3032 31.606L35.2365 28.262L47.897 30.6312L46.3798 33.2606L46.3761 33.2533V33.2514Z" fill="var(--fill-0, #1F522B)"/>
<path id="Vector_11" d="M38.7518 43.1993L32.1329 37.1178C31.7902 36.7971 31.4934 36.3904 31.2112 35.9359C31.125 35.7857 31.0004 35.6776 30.808 35.7893C30.6138 35.9011 30.6339 36.0715 30.7182 36.2181C30.9693 36.689 31.1928 37.1398 31.2973 37.5979L33.2562 46.3693L30.6266 47.8865L28.2554 35.2268L31.5996 33.2937L41.3795 41.6748L38.7499 43.192L38.7536 43.2012L38.7518 43.1993Z" fill="var(--fill-0, #1F522B)"/>
<path id="Vector_12" d="M27.1754 48.0001L24.4853 39.4229C24.3478 38.974 24.2947 38.4719 24.2782 37.9387C24.2782 37.7665 24.2269 37.6107 24.0015 37.6107C23.7761 37.6107 23.7083 37.7665 23.7083 37.9387C23.6918 38.4719 23.657 38.9758 23.5177 39.4229L20.8277 48.0001H17.7913L22.0683 35.8517H25.9311L30.2099 48.0001H27.1735H27.1754Z" fill="var(--fill-0, #1F522B)"/>
<path id="Vector_13" d="M14.7496 46.3729L16.7085 37.6015C16.8129 37.1434 17.02 36.6835 17.2711 36.2126C17.3572 36.0624 17.392 35.9048 17.1941 35.7893C16.9962 35.6757 16.8643 35.7765 16.7745 35.9268C16.4923 36.3812 16.2119 36.7971 15.8674 37.1196L9.2485 43.2012L6.6189 41.684L16.3951 33.301L19.7394 35.2341L17.37 47.8938L14.7404 46.3766L14.7459 46.3729H14.7496Z" fill="var(--fill-0, #1F522B)"/>
<path id="Vector_14" d="M4.80136 38.7485L10.8833 32.13C11.204 31.7874 11.6108 31.4905 12.0653 31.2084C12.2155 31.1222 12.3237 30.9995 12.2119 30.8053C12.1001 30.611 11.9297 30.6312 11.7831 30.7155C11.3121 30.9665 10.8613 31.19 10.4032 31.2945L1.63118 33.2533L0.112061 30.6275L12.7726 28.2565L14.7059 31.6005L6.32414 41.3797L4.80686 38.7503H4.79953L4.80136 38.7485Z" fill="var(--fill-0, #1F522B)"/>
<path id="Vector_15" d="M0 27.1736L8.57781 24.4837C9.02676 24.3463 9.52886 24.2931 10.0621 24.2766C10.2344 24.2766 10.3901 24.2253 10.3901 24C10.3901 23.7746 10.2344 23.7068 10.0621 23.7068C9.52703 23.6903 9.02493 23.6555 8.57781 23.5162L0 20.8263V17.7902L12.1493 22.0668V25.9294L0 30.2079V27.1717V27.1736Z" fill="var(--fill-0, #1F522B)"/>
<path id="Vector_16" d="M1.62935 14.7486L10.4014 16.7074C10.8595 16.8118 11.3195 17.0189 11.7904 17.2699C11.9407 17.356 12.0983 17.3909 12.2137 17.193C12.3273 16.9951 12.2265 16.8631 12.0763 16.7734C11.6218 16.4912 11.2059 16.2108 10.8833 15.8664L4.80136 9.24977L6.31865 6.62036L14.7022 16.3959L12.7689 19.7399L0.112061 17.3744L1.62935 14.745V14.7486Z" fill="var(--fill-0, #1F522B)"/>
<path id="Vector_17" d="M9.25252 4.80066L15.8714 10.8822C16.2141 11.2029 16.5109 11.6096 16.7932 12.0641C16.8793 12.2143 17.0039 12.3224 17.1963 12.2106C17.3905 12.0989 17.3704 11.9285 17.2861 11.7819C17.035 11.311 16.8115 10.8602 16.707 10.4021L14.7481 1.63071L17.3777 0.111694L19.7489 12.7713L16.4047 14.7045L6.62476 6.32333L9.25436 4.80615L9.25069 4.80066H9.25252Z" fill="var(--fill-0, #1F522B)"/>
<path id="Vector_18" d="M20.8295 0L23.5196 8.57719C23.657 9.02611 23.7101 9.52817 23.7266 10.0614C23.7266 10.2336 23.7779 10.3894 24.0033 10.3894C24.2287 10.3894 24.2965 10.2336 24.2965 10.0614C24.313 9.52817 24.3478 9.02428 24.4871 8.57719L27.1772 0H30.2136L25.9366 12.1484H22.0737L17.7949 0H20.8313H20.8295Z" fill="var(--fill-0, #1F522B)"/>
</g>
<path id="Vector_19" d="M125.603 27.0435V8.85205H129.942V27.0435H125.603Z" fill="var(--fill-0, #1F522B)"/>
<path id="Vector_20" d="M62.0752 38.3802L61.5621 36.8703H58.6319L58.1188 38.3802H57.0762L59.3778 32.0512H60.8162L63.1178 38.3802H62.0752ZM58.8922 36.0787H61.3019L60.2592 32.9857C60.2225 32.8685 60.1877 32.7604 60.1694 32.6083C60.1602 32.5551 60.1602 32.5002 60.0979 32.5002C60.0356 32.5002 60.0356 32.5533 60.0265 32.6083C60.0081 32.7604 59.9733 32.8685 59.9367 32.9857L58.894 36.0787H58.8922ZM66.1542 33.7059C67.2152 33.7059 67.8621 34.2995 67.8621 35.6481V38.3802H66.999V35.8277C66.999 34.7576 66.5409 34.4608 65.938 34.4608C65.2728 34.4608 64.5545 35.1351 64.5545 36.2308V38.3783H63.6914V33.7755H64.5545V34.0815C64.5545 34.2702 64.5362 34.4589 64.4555 34.6935C64.4281 34.7741 64.3932 34.8639 64.4647 34.8822C64.5178 34.9005 64.5453 34.8364 64.5637 34.8016C64.7432 34.3527 65.3278 33.7059 66.1542 33.7059ZM76.1742 38.3802L75.6611 36.8703H72.731L72.2179 38.3802H71.1752L73.4768 32.0512H74.9153L77.2169 38.3802H76.1742ZM72.9912 36.0787H75.4009L74.3582 32.9857C74.3216 32.8685 74.2868 32.7604 74.2684 32.6083C74.2593 32.5551 74.2593 32.5002 74.197 32.5002C74.1347 32.5002 74.1347 32.5533 74.1255 32.6083C74.1072 32.7604 74.0724 32.8685 74.0357 32.9857L72.993 36.0787H72.9912ZM78.6535 31.9083V34.1383C78.6535 34.3087 78.6261 34.4443 78.5638 34.633C78.5363 34.7045 78.4831 34.7943 78.5638 34.8217C78.6352 34.8492 78.6627 34.7594 78.6719 34.732C78.9412 34.1383 79.4818 33.7077 80.2185 33.7077C81.4132 33.7077 82.2507 34.7136 82.2507 36.0806C82.2507 37.4475 81.4151 38.4534 80.2185 38.4534C79.5001 38.4534 78.9504 38.0302 78.6719 37.4108C78.6627 37.3834 78.6352 37.3119 78.5821 37.3302C78.4923 37.3577 78.5363 37.4383 78.5638 37.5098C78.6261 37.7077 78.6535 37.8341 78.6535 37.9954V38.382H77.7904V31.9102H78.6535V31.9083ZM80.0371 37.66C80.9368 37.66 81.3858 36.9326 81.3858 36.0787C81.3858 35.2249 80.9368 34.4974 80.0371 34.4974C79.2198 34.4974 78.6535 35.2249 78.6535 36.0787C78.6535 36.9326 79.2198 37.66 80.0371 37.66ZM85.0873 33.7059C86.48 33.7059 87.3156 34.7759 87.3156 36.0787C87.3156 37.3815 86.48 38.4516 85.0873 38.4516C83.6947 38.4516 82.8572 37.3815 82.8572 36.0787C82.8572 34.7759 83.6928 33.7059 85.0873 33.7059ZM85.0873 37.66C85.9504 37.66 86.4544 36.9491 86.4544 36.0787C86.4544 35.2084 85.9504 34.4974 85.0873 34.4974C84.2243 34.4974 83.7203 35.2084 83.7203 36.0787C83.7203 36.9491 84.2243 37.66 85.0873 37.66ZM87.9992 32.9143V31.9083H88.9337V32.9143H87.9992ZM88.0358 38.3802V33.7773H88.8989V38.3802H88.0358ZM92.4942 34.5322H91.2005V36.9418C91.2005 37.464 91.3086 37.6252 91.8125 37.6252H92.496V38.3802H91.7411C90.7882 38.3802 90.3392 38.0302 90.3392 37.0315V34.5322H89.4761V33.7773H90.3392V32.4837H91.2023V33.7773H92.496V34.5322H92.4942ZM93.3976 32.9143V31.9083H94.3322V32.9143H93.3976ZM93.4343 38.3802V33.7773H94.2974V38.3802H93.4343ZM95.2301 38.3802V37.3009L97.9183 34.8474C98.0173 34.7668 98.1529 34.6678 98.305 34.6055C98.3508 34.5872 98.4039 34.5432 98.3764 34.4974C98.349 34.4516 98.305 34.4699 98.2408 34.4883C98.0887 34.5341 97.9257 34.5689 97.8175 34.5689H95.2283V33.7773H99.1113V34.8566L96.423 37.3101C96.3241 37.3907 96.1885 37.4805 96.0364 37.5519C95.9906 37.5703 95.9374 37.6142 95.9649 37.66C95.9924 37.7059 96.0364 37.6875 96.1005 37.6692C96.2526 37.6161 96.4157 37.5886 96.5238 37.5886H99.1131V38.3802H95.2301ZM102.478 32.0512C104.257 32.0512 104.869 32.896 104.869 34.0283C104.869 35.1607 104.151 36.0054 102.622 36.0054H101.057V38.3783H100.123V32.0494H102.478V32.0512ZM102.613 35.2157C103.485 35.2157 103.934 34.7026 103.934 34.0283C103.934 33.2826 103.485 32.841 102.613 32.841H101.057V35.2139H102.613V35.2157ZM107.533 33.7059C108.926 33.7059 109.763 34.7759 109.763 36.0787C109.763 37.3815 108.928 38.4516 107.533 38.4516C106.139 38.4516 105.303 37.3815 105.303 36.0787C105.303 34.7759 106.139 33.7059 107.533 33.7059ZM107.533 37.66C108.396 37.66 108.9 36.9491 108.9 36.0787C108.9 35.2084 108.396 34.4974 107.533 34.4974C106.67 34.4974 106.166 35.2084 106.166 36.0787C106.166 36.9491 106.67 37.66 107.533 37.66ZM109.906 33.7773H110.841L111.785 37.2203C111.83 37.3999 111.847 37.5703 111.847 37.7498C111.847 37.803 111.856 37.8579 111.918 37.8579C111.981 37.8579 111.99 37.8048 111.99 37.7498C111.99 37.5703 112.008 37.3999 112.052 37.2203L112.924 33.7773H113.93L114.803 37.2203C114.849 37.3999 114.865 37.5703 114.865 37.7498C114.865 37.803 114.874 37.8579 114.937 37.8579C114.999 37.8579 115.008 37.8048 115.008 37.7498C115.008 37.5703 115.026 37.3999 115.07 37.2203L116.014 33.7773H116.949L115.547 38.3802H114.396L113.542 35.1076C113.515 34.972 113.496 34.8016 113.496 34.622C113.496 34.5689 113.496 34.5048 113.425 34.5048C113.353 34.5048 113.353 34.5671 113.353 34.622C113.353 34.8016 113.335 34.972 113.307 35.1076L112.454 38.3802H111.303L109.901 33.7773H109.906ZM121.418 36.0146C121.418 36.141 121.409 36.2308 121.39 36.3298H117.956C118.019 37.0664 118.523 37.66 119.358 37.66C119.978 37.66 120.284 37.354 120.447 36.8245H121.337C121.149 37.6784 120.52 38.4516 119.342 38.4516C117.894 38.4516 117.104 37.3815 117.104 36.0787C117.104 34.6953 118.004 33.7059 119.325 33.7059C120.35 33.7059 121.42 34.3802 121.42 36.0164L121.418 36.0146ZM118.002 35.6115H120.555C120.502 34.9372 120.069 34.4608 119.367 34.4608C118.504 34.4608 118.127 34.9903 118 35.6115H118.002ZM122.932 34.8474C122.977 34.8566 123.003 34.8108 123.021 34.7668C123.309 34.0302 123.569 33.7059 124.729 33.7059V34.5872C123.39 34.4974 123.003 34.9738 123.003 36.1777V38.3802H122.14V33.7773H123.003V34.0833C123.003 34.272 122.985 34.4168 122.904 34.6862C122.886 34.7576 122.858 34.8291 122.932 34.8474ZM128.182 35.2157C128.182 33.4273 129.287 31.9798 131.238 31.9798C133.19 31.9798 133.998 33.3376 134.079 34.4241H133.153C133.063 33.6784 132.479 32.7695 131.266 32.7695C129.899 32.7695 129.118 33.8579 129.118 35.2139C129.118 36.5698 129.9 37.6582 131.266 37.6582C132.479 37.6582 133.063 36.7512 133.153 36.0036H134.079C133.998 37.092 133.197 38.4479 131.238 38.4479C129.279 38.4479 128.182 37.0004 128.182 35.212V35.2157ZM136.88 33.7059C138.273 33.7059 139.11 34.7759 139.11 36.0787C139.11 37.3815 138.275 38.4516 136.88 38.4516C135.486 38.4516 134.65 37.3815 134.65 36.0787C134.65 34.7759 135.486 33.7059 136.88 33.7059ZM136.88 37.66C137.743 37.66 138.247 36.9491 138.247 36.0787C138.247 35.2084 137.743 34.4974 136.88 34.4974C136.017 34.4974 135.513 35.2084 135.513 36.0787C135.513 36.9491 136.017 37.66 136.88 37.66ZM144.738 33.7059C145.601 33.7059 146.303 34.1548 146.303 35.5748V38.3802H145.44V35.4686C145.44 34.7503 145.09 34.4626 144.533 34.4626C144.029 34.4626 143.499 34.9299 143.499 35.7746V38.382H142.636V35.5767C142.636 34.8584 142.394 34.4626 141.81 34.4626C141.225 34.4626 140.696 35.0563 140.696 35.9725V38.382H139.832V33.7791H140.696V34.0851C140.696 34.2556 140.677 34.4095 140.597 34.6697C140.578 34.7411 140.551 34.8053 140.615 34.8217C140.677 34.8401 140.705 34.7851 140.714 34.7503C140.939 34.1218 141.469 33.7077 142.097 33.7077C142.682 33.7077 143.14 34.1218 143.276 34.688C143.285 34.7338 143.312 34.7594 143.365 34.7594C143.428 34.7594 143.446 34.732 143.464 34.688C143.706 34.0595 144.175 33.7077 144.742 33.7077L144.738 33.7059ZM148.101 33.7773V34.1365C148.101 34.3069 148.073 34.4425 148.011 34.6312C147.983 34.7026 147.93 34.7924 148.011 34.8199C148.082 34.8474 148.11 34.7576 148.119 34.7301C148.388 34.1365 148.929 33.7059 149.666 33.7059C150.86 33.7059 151.698 34.7118 151.698 36.0787C151.698 37.4457 150.862 38.4516 149.666 38.4516C148.947 38.4516 148.397 38.0283 148.119 37.409C148.11 37.3815 148.082 37.3101 148.029 37.3284C147.939 37.3559 147.983 37.4365 148.011 37.508C148.073 37.7059 148.101 37.8323 148.101 37.9935V40.1062H147.238V33.7773H148.101ZM149.486 37.66C150.386 37.66 150.835 36.9326 150.835 36.0787C150.835 35.2249 150.386 34.4974 149.486 34.4974C148.669 34.4974 148.102 35.2249 148.102 36.0787C148.102 36.9326 148.669 37.66 149.486 37.66ZM152.271 37.0939C152.271 36.0421 153.045 35.7178 153.926 35.6555C154.752 35.5932 155.59 35.6921 155.581 35.2157C155.572 34.8382 155.355 34.4608 154.412 34.4608C153.602 34.4608 153.323 34.7668 153.261 35.2157H152.416C152.577 34.1639 153.387 33.7059 154.448 33.7059C155.509 33.7059 156.444 34.065 156.444 35.7544V38.3783H155.581V37.9386C155.581 37.7682 155.599 37.6326 155.68 37.3999C155.698 37.3192 155.733 37.2478 155.671 37.2203C155.599 37.1928 155.581 37.2661 155.562 37.3101C155.302 37.9935 154.69 38.4516 153.855 38.4516C153.019 38.4516 152.273 37.8763 152.273 37.0939H152.271ZM155.579 35.8992C155.3 36.24 154.679 36.2491 153.979 36.3481C153.422 36.4287 153.134 36.6266 153.134 37.0499C153.134 37.4182 153.44 37.7608 154.186 37.6619C154.888 37.5721 155.57 37.059 155.579 35.901V35.8992ZM159.911 33.7059C160.972 33.7059 161.619 34.2995 161.619 35.6481V38.3802H160.756V35.8277C160.756 34.7576 160.298 34.4608 159.695 34.4608C159.029 34.4608 158.311 35.1351 158.311 36.2308V38.3783H157.448V33.7755H158.311V34.0815C158.311 34.2702 158.293 34.4589 158.212 34.6935C158.185 34.7741 158.15 34.8639 158.221 34.8822C158.274 34.9005 158.302 34.8364 158.32 34.8016C158.5 34.3527 159.084 33.7059 159.911 33.7059ZM161.912 33.7773H162.847L164.087 37.1745C164.149 37.3357 164.159 37.508 164.159 37.66C164.159 37.7132 164.159 37.7773 164.23 37.7773C164.301 37.7773 164.301 37.715 164.301 37.66C164.301 37.508 164.329 37.3357 164.382 37.1745L165.577 33.7773H166.511L164.516 38.928C164.192 39.7727 163.743 40.1062 162.916 40.1062H162.322V39.3513H162.737C163.42 39.3513 163.537 39.1992 163.671 38.8657L163.798 38.5597L161.91 33.7773H161.912Z" fill="var(--fill-0, #1F522B)"/>
</g>
</g>
</svg>
